# Blender v3.1.2 OBJ File: ''
# www.blender.org
mtllib emptycard.mtl
o 123
v -1.000000 -2.000000 1.000000
v 1.000000 -2.000000 1.000000
v 1.000000 1.000000 1.000000
v -1.000000 1.000000 1.000000
v 1.000000 -2.000000 0.950000
v -1.000000 -2.000000 0.950000
v -1.000000 1.000000 0.950000
v 1.000000 1.000000 0.950000
v -1.000000 1.000000 0.950000
v -1.000000 1.000000 1.000000
v 1.000000 1.000000 1.000000
v 1.000000 1.000000 0.950000
v -1.000000 -2.000000 0.950000
v 1.000000 -2.000000 0.950000
v 1.000000 -2.000000 1.000000
v -1.000000 -2.000000 1.000000
v 1.000000 -2.000000 0.950000
v 1.000000 1.000000 0.950000
v 1.000000 1.000000 1.000000
v 1.000000 -2.000000 1.000000
v -1.000000 -2.000000 0.950000
v -1.000000 -2.000000 1.000000
v -1.000000 1.000000 1.000000
v -1.000000 1.000000 0.950000
vt 0.340000 0.000000
vt 0.000000 0.500000
vt 0.000000 0.000000
vt 0.680000 0.000000
vt 0.340000 0.500000
vt 0.340000 0.000000
vt 1.000000 0.000000
vt 0.680000 0.510000
vt 0.680000 1.000000
vt 0.340000 0.500000
vt 0.000000 1.000000
vt 0.000000 0.500000
vt 0.680000 0.500000
vt 0.340000 1.000000
vt 0.340000 0.500000
vt 1.000000 0.500000
vt 0.680000 1.000000
vt 0.680000 0.500000
vt 0.340000 0.500000
vt 0.680000 0.500000
vt 1.000000 0.510000
vt 0.340000 1.000000
vt 0.680000 1.000000
vt 1.000000 1.000000
vn 0.0000 -0.0000 1.0000
vn 0.0000 0.0000 -1.0000
vn 0.0000 1.0000 0.0000
vn 0.0000 -1.0000 0.0000
vn 1.0000 0.0000 0.0000
vn -1.0000 0.0000 0.0000
usemtl Material.001
s off
f 2/1/1 4/2/1 1/3/1
f 6/4/2 8/5/2 5/6/2
f 10/7/3 12/8/3 9/9/3
f 14/10/4 16/11/4 13/12/4
f 18/13/5 20/14/5 17/15/5
f 22/16/6 24/17/6 21/18/6
f 2/1/1 3/19/1 4/2/1
f 6/4/2 7/20/2 8/5/2
f 10/7/3 11/21/3 12/8/3
f 14/10/4 15/22/4 16/11/4
f 18/13/5 19/23/5 20/14/5
f 22/16/6 23/24/6 24/17/6
